HIERARCHY
ROOT SpineBase
{
  OFFSET 0.000000 0.000000 0.000000
  CHANNELS 6 Xposition Yposition Zposition Zrotation Xrotation Yrotation
  JOINT SpineMid
  {
    OFFSET -0.000000 30.456508 0.000000
    CHANNELS 3 Zrotation Xrotation Yrotation
    JOINT SpineShoulder
    {
      OFFSET 0.035309 22.745606 -0.703450
      CHANNELS 3 Zrotation Xrotation Yrotation
      JOINT Neck
      {
        OFFSET 0.019438 7.548089 -0.540920
        CHANNELS 3 Zrotation Xrotation Yrotation
        JOINT Head
        {
          OFFSET -4.109547 13.540918 -0.097125
          CHANNELS 3 Zrotation Xrotation Yrotation
          End Site
          {
            OFFSET 0 0 0
          }
        }
      }
      JOINT ShoulderLeft
      {
        OFFSET -16.434415 -4.225070 2.944253
        CHANNELS 3 Zrotation Xrotation Yrotation
        JOINT ElbowLeft
        {
          OFFSET -2.949968 -28.547295 1.539783
          CHANNELS 3 Zrotation Xrotation Yrotation
          JOINT WristLeft
          {
            OFFSET -3.362388 -21.138726 -5.699524
            CHANNELS 3 Zrotation Xrotation Yrotation
            JOINT HandLeft
            {
              OFFSET 0.738468 -4.202962 -2.209417
              CHANNELS 3 Zrotation Xrotation Yrotation
              JOINT HandTipLeft
              {
                OFFSET -0.046074 -5.719979 -4.646568
                CHANNELS 3 Zrotation Xrotation Yrotation
                End Site
                {
                  OFFSET 0 0 0
                }
              }
              JOINT ThumbLeft
              {
                OFFSET -1.685679 -1.770136 -4.537733
                CHANNELS 3 Zrotation Xrotation Yrotation
                End Site
                {
                  OFFSET 0 0 0
                }
              }
            }
          }
        }
      }
      JOINT ShoulderRight
      {
        OFFSET 15.290624 -2.242228 -5.483724
        CHANNELS 3 Zrotation Xrotation Yrotation
        JOINT ElbowRight
        {
          OFFSET 6.967397 -27.131882 5.235816
          CHANNELS 3 Zrotation Xrotation Yrotation
          JOINT WristRight
          {
            OFFSET 0.569234 -22.051502 -1.821560
            CHANNELS 3 Zrotation Xrotation Yrotation
            JOINT HandRight
            {
              OFFSET -1.235710 -0.857958 0.531721
              CHANNELS 3 Zrotation Xrotation Yrotation
              JOINT HandTipRight
              {
                OFFSET 0.041595 -7.469646 0.154242
                CHANNELS 3 Zrotation Xrotation Yrotation
                End Site
                {
                  OFFSET 0 0 0
                }
              }
              JOINT ThumbRight
              {
                OFFSET 2.678295 2.160369 -0.448723
                CHANNELS 3 Zrotation Xrotation Yrotation
                End Site
                {
                  OFFSET 0 0 0
                }
              }
            }
          }
        }
      }
    }
  }
  JOINT HipLeft
  {
    OFFSET -6.576334 0.749522 -1.883677
    CHANNELS 3 Zrotation Xrotation Yrotation
    JOINT KneeLeft
    {
      OFFSET -10.893675 -24.925757 -5.853053
      CHANNELS 3 Zrotation Xrotation Yrotation
      JOINT AnkleLeft
      {
        OFFSET 3.008211 -20.815792 19.914170
        CHANNELS 3 Zrotation Xrotation Yrotation
        JOINT FootLeft
        {
          OFFSET 1.182537 -0.363613 -15.199845
          CHANNELS 3 Zrotation Xrotation Yrotation
          End Site
          {
            OFFSET 0 0 0
          }
        }
      }
    }
  }
  JOINT HipRight
  {
    OFFSET 7.140349 1.276648 -4.724126
    CHANNELS 3 Zrotation Xrotation Yrotation
    JOINT KneeRight
    {
      OFFSET 3.981657 -32.630105 1.300435
      CHANNELS 3 Zrotation Xrotation Yrotation
      JOINT AnkleRight
      {
        OFFSET -2.732620 -30.044505 2.937148
        CHANNELS 3 Zrotation Xrotation Yrotation
        JOINT FootRight
        {
          OFFSET 6.739501 -3.722331 -8.185893
          CHANNELS 3 Zrotation Xrotation Yrotation
          End Site
          {
            OFFSET 0 0 0
          }
        }
      }
    }
  }
}
MOTION
Frames: 7
Frame Time: 0.033333
-26.764629 67.945759 348.649646 5.871906 3.064284 30.294699 0.339007 -0.172820 -30.253581 -0.002906 0.112117 0.245638 15.706480 -2.336337 0.844535 0.000000 0.000000 0.000000 -15.656732 16.828456 -2.075230 -18.867159 38.192208 7.000772 7.648206 -26.609922 16.025637 -0.323951 -8.302269 -3.412368 0.000000 0.000000 0.000000 0.000000 0.000000 0.000000 9.194494 36.915601 8.635644 -65.206568 11.103955 -25.983362 52.325255 6.822866 -43.417934 -54.627881 -33.695695 12.242137 0.000000 0.000000 0.000000 0.000000 0.000000 0.000000 -11.754076 72.731995 -42.242192 37.931244 -14.871295 26.730695 9.385728 -40.030796 15.312043 0.000000 0.000000 0.000000 -12.677378 -4.205968 -31.608918 12.179968 8.206002 0.365238 -37.528290 -30.443369 39.888064 0.000000 0.000000 0.000000
-26.961668 67.698421 348.507888 5.536392 3.425223 29.668725 0.527039 -0.471964 -29.616603 0.123717 0.216357 0.251086 15.128020 -2.604658 0.903685 0.000000 0.000000 0.000000 -16.218860 17.835874 -2.146068 -16.665144 35.893179 5.978042 5.248230 -27.102011 14.956239 -4.029504 -9.601043 -2.001987 0.000000 0.000000 0.000000 0.000000 0.000000 0.000000 10.043388 32.991218 8.039053 -53.955079 5.274239 -23.352070 49.639112 8.371949 -44.769011 -51.023546 -36.249292 14.073323 0.000000 0.000000 0.000000 0.000000 0.000000 0.000000 -15.053594 71.089018 -38.776209 44.053131 -19.056048 31.095872 3.253076 -31.545358 11.732456 0.000000 0.000000 0.000000 -12.560852 -5.166114 -31.135955 12.907431 8.873146 0.248811 -40.134074 -33.860862 41.027176 0.000000 0.000000 0.000000
-27.120008 67.439729 348.377241 5.231852 3.747255 28.577218 0.593586 -0.718824 -28.517114 0.196958 0.282369 0.249512 14.757819 -2.827075 0.938659 0.000000 0.000000 0.000000 -16.995558 18.527528 -2.133806 -15.180261 33.525354 5.594415 4.640064 -27.050966 14.351564 -6.153191 -14.256939 -2.103347 0.000000 0.000000 0.000000 0.000000 0.000000 0.000000 10.416347 28.149229 7.425540 -41.674001 0.250785 -19.406367 48.960208 9.685628 -43.893053 -47.618199 -38.921274 15.088503 0.000000 0.000000 0.000000 0.000000 0.000000 0.000000 -22.784865 70.118350 -31.449007 52.281050 -20.748122 37.834628 -3.320699 -23.968604 10.638700 0.000000 0.000000 0.000000 -12.021900 -5.981455 -30.109791 12.729997 8.928627 0.236441 -42.558667 -37.823933 39.764218 0.000000 0.000000 0.000000
-27.224777 67.194678 348.255687 5.003345 4.026044 27.195620 0.511704 -0.894549 -27.136418 0.190321 0.296953 0.239255 14.440467 -3.165281 0.921302 0.000000 0.000000 0.000000 -17.978848 18.898060 -2.032807 -13.404749 31.950443 5.480728 3.516929 -28.381805 13.373867 -6.692485 -15.959842 -1.745639 0.000000 0.000000 0.000000 0.000000 0.000000 0.000000 10.045811 23.357137 6.844232 -29.447415 -3.452289 -15.248026 52.912031 11.187478 -39.614933 -48.539209 -38.965720 12.794137 0.000000 0.000000 0.000000 0.000000 0.000000 0.000000 -35.841535 69.094406 -19.672194 59.766197 -18.564885 43.356633 -8.673913 -18.873612 11.079164 0.000000 0.000000 0.000000 -11.445225 -6.604919 -28.747768 12.045711 8.546080 0.309877 -44.861443 -41.264972 35.024845 0.000000 0.000000 0.000000
-27.259547 66.993015 348.142606 4.824049 4.192179 25.654111 0.321957 -0.998214 -25.603123 0.139765 0.269320 0.223336 14.522197 -3.340545 0.893731 0.000000 0.000000 0.000000 -18.923521 18.695366 -1.871406 -11.657506 31.315363 5.601509 1.027051 -26.813203 13.047149 -4.696862 -16.978409 -2.820461 0.000000 0.000000 0.000000 0.000000 0.000000 0.000000 9.281568 19.924966 6.358049 -18.628331 -6.474753 -11.971696 60.828727 13.699612 -27.581745 -55.455095 -35.657087 2.832449 0.000000 0.000000 0.000000 0.000000 0.000000 0.000000 -54.111933 66.703015 -3.849960 67.190219 -13.487577 47.050338 -13.720624 -19.089738 9.953599 0.000000 0.000000 0.000000 -10.714996 -6.965822 -27.157828 10.507241 7.676589 0.467803 -46.627763 -43.271643 26.323528 0.000000 0.000000 0.000000
-27.231580 66.849715 348.059048 4.724152 4.254636 24.195665 0.055151 -1.014962 -24.160708 0.040268 0.213073 0.202440 14.298928 -3.728474 0.789207 0.000000 0.000000 0.000000 -19.685308 18.670070 -1.688459 -10.281260 29.939775 5.731428 0.099772 -25.196584 12.943358 -2.778430 -19.495922 -4.137212 0.000000 0.000000 0.000000 0.000000 0.000000 0.000000 10.901703 14.969488 5.755539 -11.422326 -6.205089 -9.337282 60.143808 16.680474 -17.002049 -57.234011 -33.540903 -4.001793 0.000000 0.000000 0.000000 0.000000 0.000000 0.000000 -69.287739 61.976799 8.416962 75.313579 -9.145230 49.017660 -17.914562 -17.800470 12.352769 0.000000 0.000000 0.000000 -9.839287 -7.070167 -25.584054 8.556238 6.559529 0.621779 -41.057842 -38.569531 30.145296 0.000000 0.000000 0.000000
-27.123290 66.811244 348.007713 4.714438 4.203010 22.909079 -0.249313 -0.926730 -22.895298 -0.079803 0.145473 0.180174 13.691210 -4.212302 0.628283 0.000000 0.000000 0.000000 -20.119732 17.800641 -1.547507 -9.586548 29.297695 6.062025 -0.109077 -25.135381 12.482085 3.842918 -15.647791 -4.925560 0.000000 0.000000 0.000000 0.000000 0.000000 0.000000 12.846629 10.687966 5.377713 -7.384288 -5.562392 -7.887297 56.808913 19.102837 -8.510028 -55.620336 -29.298445 -8.605238 0.000000 0.000000 0.000000 0.000000 0.000000 0.000000 -75.051683 57.391569 12.559249 78.954478 -6.107926 48.658124 -20.247348 -17.826820 12.419332 0.000000 0.000000 0.000000 -9.133355 -6.869193 -24.165803 7.228618 5.416024 0.724080 -39.369572 -37.304415 29.143220 0.000000 0.000000 0.000000
